<svg xmlns="http://www.w3.org/2000/svg" xmlns:xlink="http://www.w3.org/1999/xlink" width="1024" zoomAndPan="magnify" viewBox="0 0 768 767.999994" height="1024" preserveAspectRatio="xMidYMid meet" version="1.0"><defs><clipPath id="6efcc9c6e1"><path d="M 248.109375 76.800781 L 519.609375 76.800781 L 519.609375 467.550781 L 248.109375 467.550781 Z M 248.109375 76.800781 " clip-rule="nonzero"/></clipPath></defs><path fill="#d9d9d9" d="M 402.371094 210.75 C 402.371094 210.75 407.804688 222.777344 407.804688 222.777344 C 414.285156 232.976562 437.410156 255.160156 447.238281 263.214844 C 447.238281 263.214844 460.3125 272.707031 460.3125 272.707031 C 460.3125 272.707031 478.546875 289.410156 478.546875 289.410156 C 500.160156 312.324219 508.492188 336.199219 510.699219 367.082031 C 510.699219 367.082031 511.320312 373.644531 511.320312 373.644531 C 511.320312 380.628906 509.222656 397.640625 507.125 404.253906 C 504.148438 413.613281 503.046875 416.890625 497.328125 425.023438 C 491.097656 433.890625 488.988281 437.890625 479.804688 444.703125 C 470.457031 451.632812 466.476562 451.929688 455.9375 455.449219 C 455.9375 455.449219 439.539062 460.542969 439.539062 460.542969 C 439.539062 460.542969 430.792969 461.296875 430.792969 461.296875 C 424.234375 462.097656 426.203125 463.246094 416.582031 463.289062 C 416.582031 463.289062 375.039062 463.289062 375.039062 463.289062 C 354.847656 463.253906 317.917969 452.519531 299.605469 443.664062 C 295.757812 441.804688 279.152344 433.070312 277.328125 430.347656 C 273.980469 425.398438 281.46875 415.066406 283.644531 409.71875 C 290.640625 392.457031 293.253906 376.902344 293.046875 358.339844 C 292.6875 327.605469 278.203125 303.730469 266.820312 276.34375 C 266.820312 276.34375 262.183594 262.132812 262.183594 262.132812 C 259.582031 254.523438 256.371094 245.964844 254.882812 238.082031 C 251.035156 217.628906 248.136719 182.90625 252.226562 162.648438 C 252.226562 162.648438 258.480469 141.878906 258.480469 141.878906 C 258.480469 141.878906 259.933594 136.511719 259.933594 136.511719 C 262.371094 130.597656 265.542969 132.148438 265.714844 122.199219 C 265.714844 122.199219 265.714844 115.640625 265.714844 115.640625 C 265.804688 102.28125 270.710938 109.988281 283.207031 103.035156 C 283.207031 103.035156 298.511719 92.070312 298.511719 92.070312 C 305.335938 87.742188 321.121094 81.847656 329.125 80.65625 C 334.316406 79.890625 347.25 77.222656 351.777344 79.09375 C 354.34375 80.164062 362.0625 88.507812 365.199219 91.109375 C 371.707031 96.507812 382.289062 101.636719 390.34375 104.324219 C 399.605469 107.410156 415.511719 110.097656 425.328125 111.269531 C 425.328125 111.269531 437.355469 111.269531 437.355469 111.269531 C 449.488281 112.613281 461.644531 114.449219 473.429688 117.519531 C 479.53125 119.105469 490.003906 121.523438 495.25 124.519531 C 500.914062 127.765625 500.945312 131.21875 504.117188 136.410156 C 508.109375 142.960938 513.824219 148.753906 516.023438 156.089844 C 517.160156 159.90625 518.15625 165.503906 514.632812 168.398438 C 511.957031 170.609375 507.375 170.214844 504.042969 170.609375 C 504.042969 170.609375 475.617188 171.394531 475.617188 171.394531 C 484.757812 182.03125 491.4375 173.230469 511.695312 176.863281 C 511.5625 190.113281 504.566406 195.0625 496.378906 204.652344 C 491.207031 210.695312 486.570312 216.097656 477.804688 213.472656 C 469.964844 211.132812 462.695312 198.355469 452.660156 197.25 C 438.601562 195.6875 416.222656 207.503906 402.371094 210.75 Z M 402.371094 210.75 " fill-opacity="1" fill-rule="nonzero"/><g clip-path="url(#6efcc9c6e1)"><path stroke-linecap="butt" transform="matrix(1.093231, 0, 0, 1.093231, -156.270575, -197.023475)" fill="none" stroke-linejoin="miter" d="M 511.000506 372.998406 C 511.000506 372.998406 515.970721 384.000054 515.970721 384.000054 C 521.898533 393.329479 543.051425 413.621248 552.041403 420.989029 C 552.041403 420.989029 564.000648 429.67172 564.000648 429.67172 C 564.000648 429.67172 580.679989 444.950396 580.679989 444.950396 C 600.450082 465.910339 608.071555 487.74927 610.090369 515.998386 C 610.090369 515.998386 610.658496 522.001233 610.658496 522.001233 C 610.658496 528.389978 608.739729 543.950931 606.820961 550.00023 C 604.098241 558.561434 603.09062 561.559284 597.859567 568.998528 C 592.160435 577.109518 590.230948 580.768397 581.830535 586.999924 C 573.28005 593.338646 569.639037 593.610203 559.99875 596.829587 C 559.99875 596.829587 544.998777 601.488941 544.998777 601.488941 C 544.998777 601.488941 536.998553 602.178553 536.998553 602.178553 C 530.999279 602.911044 532.800133 603.961542 523.99953 604.000847 C 523.99953 604.000847 485.99936 604.000847 485.99936 604.000847 C 467.529884 603.968688 433.749574 594.149745 416.99877 586.049474 C 413.479244 584.348667 398.289895 576.359162 396.621247 573.868695 C 393.55908 569.341548 400.408758 559.890636 402.398987 554.99903 C 408.798452 539.209396 411.188871 524.981218 410.999496 508.001735 C 410.670769 479.888399 397.421626 458.049467 387.009544 432.998298 C 387.009544 432.998298 382.768246 419.999274 382.768246 419.999274 C 380.388546 413.038829 377.451438 405.210115 376.090078 397.999552 C 372.570552 379.290677 369.919294 347.529181 373.660354 328.998962 C 373.660354 328.998962 379.380925 310.000664 379.380925 310.000664 C 379.380925 310.000664 380.710127 305.091192 380.710127 305.091192 C 382.939756 299.681483 385.841133 301.100013 385.99835 291.999267 C 385.99835 291.999267 385.99835 285.999993 385.99835 285.999993 C 386.080532 273.77991 390.568375 280.829683 401.998798 274.469523 C 401.998798 274.469523 415.998296 264.439765 415.998296 264.439765 C 422.240543 260.480744 436.679535 255.088901 444.000865 253.999098 C 448.749547 253.298766 460.580159 250.858322 464.721409 252.569849 C 467.068951 253.548885 474.129444 261.181076 476.998662 263.560777 C 482.951486 268.498834 492.631078 273.190345 499.998858 275.648654 C 508.470734 278.471422 523.020494 280.929731 531.999753 282.001668 C 531.999753 282.001668 543.001401 282.001668 543.001401 282.001668 C 554.099523 283.230822 565.219083 284.91019 575.999197 287.718665 C 581.580416 289.169354 591.159961 291.381117 595.958666 294.121703 C 601.139695 297.090969 601.16828 300.24961 604.069656 304.998291 C 607.721388 310.990419 612.948868 316.289362 614.960537 322.999688 C 616.000316 326.49063 616.911462 331.610916 613.688505 334.2586 C 611.240915 336.280988 607.049641 335.920103 604.001767 336.280988 C 604.001767 336.280988 578.000146 336.999186 578.000146 336.999186 C 586.361256 346.728802 592.471297 338.678554 611.001516 342.001559 C 610.88003 354.121594 604.480565 358.648742 596.991298 367.42076 C 592.260483 372.948382 588.019185 377.890012 580.001096 375.488873 C 572.829837 373.348572 566.180254 361.660885 557.000899 360.649691 C 544.141227 359.220442 523.670802 370.029141 511.000506 372.998406 Z M 511.000506 372.998406 " stroke="#000000" stroke-width="1" stroke-opacity="1" stroke-miterlimit="4"/></g></svg>