<svg xmlns="http://www.w3.org/2000/svg" xmlns:xlink="http://www.w3.org/1999/xlink" width="1024" zoomAndPan="magnify" viewBox="0 0 768 767.999994" height="1024" preserveAspectRatio="xMidYMid meet" version="1.0"><path stroke-linecap="butt" transform="matrix(1.177952, 0, 0, 1.177952, -202.731491, -228.849871)" fill-opacity="1" fill="#d9d9d9" fill-rule="nonzero" stroke-linejoin="miter" d="M 601.001044 611.000211 C 588.840768 618.408462 575.659121 623.760708 561.999951 627.590847 C 561.999951 627.590847 549.000692 631.490624 549.000692 631.490624 C 531.23946 635.34066 514.098345 636.030417 495.998867 636.000571 C 495.998867 636.000571 477.998873 634.170064 477.998873 634.170064 C 477.998873 634.170064 459.000721 631.629902 459.000721 631.629902 C 459.000721 631.629902 443.000358 627.269181 443.000358 627.269181 C 430.710752 623.830347 412.27966 616.640961 401.578484 609.948995 C 399.320195 608.529689 391.981582 604.719447 390.761244 603.280243 C 385.279669 596.820407 398.769716 595.941631 401.999634 596.01127 C 411.589903 596.250031 415.890934 601.220922 423.99889 605.349513 C 436.55047 611.73971 449.380606 617.161594 462.999983 620.839191 C 497.491129 630.170802 537.380946 625.909565 569.998475 611.829245 C 578.461258 608.181494 590.279972 601.831091 597.960146 596.770665 C 597.960146 596.770665 606.041573 590.698817 606.041573 590.698817 C 617.061098 583.350257 625.500668 589.621073 624.489246 598.000952 C 624.489246 598.000952 622.728377 605.001318 622.728377 605.001318 C 617.691164 623.820398 611.088734 630.969991 599.740912 645.998726 C 595.439881 651.699166 582.440623 667.099309 576.998841 670.999086 C 576.998841 670.999086 599.001413 670.000929 599.001413 670.000929 C 613.449824 669.981032 630.090202 669.380811 644.001399 672.998717 C 643.759321 680.509769 642.538982 680.151626 628.999193 679.999083 C 628.999193 679.999083 619.001038 679.050668 619.001038 679.050668 C 619.001038 679.050668 605.000306 679.050668 605.000306 679.050668 C 605.000306 679.050668 590.001416 679.999083 590.001416 679.999083 C 590.001416 679.999083 576.000684 679.999083 576.000684 679.999083 C 565.090591 680.01898 566.519846 682.409915 558.869517 689.098565 C 558.869517 689.098565 550.16134 695.518607 550.16134 695.518607 C 550.16134 695.518607 544.580281 700.698414 544.580281 700.698414 C 535.119341 708.710202 516.791049 721.331421 506.000337 727.618818 C 497.908962 732.340997 496.75163 734.718668 486.99887 738.001644 C 486.99887 738.001644 486.99887 740.001275 486.99887 740.001275 C 505.390168 745.370102 523.791415 749.81041 542.998483 749.99943 C 542.998483 749.99943 563.001425 749.99943 563.001425 749.99943 C 572.631488 749.979533 596.328606 745.771354 605.998463 743.300832 C 605.998463 743.300832 648.998818 729.7113 648.998818 729.7113 C 656.38054 726.958906 660.071401 722.240043 668.000286 722.021178 C 672.311264 721.888532 686.431378 722.631347 680.260046 730.609974 C 678.721358 732.599656 675.239414 733.939376 673.001021 735.119921 C 663.361009 740.200243 663.639565 739.560229 653.999553 743.048805 C 639.100148 748.450793 609.559995 756.339884 594.000678 758.571645 C 594.000678 758.571645 585.000681 759.291247 585.000681 759.291247 C 579.369879 759.981003 577.221022 760.91947 570.999948 760.999058 C 570.999948 760.999058 542.000326 760.999058 542.000326 760.999058 C 542.000326 760.999058 502.999233 756.538853 502.999233 756.538853 C 502.999233 756.538853 480.999977 750.961109 480.999977 750.961109 C 477.750162 749.99943 473.309854 748.109231 470.000349 748.218664 C 465.261589 748.381154 453.141106 754.380047 448.001093 756.111071 C 439.631162 758.919839 408.409728 765.900309 400.000003 765.999793 C 379.791461 766.228606 349.140402 767.780559 335.119773 750.251456 C 328.620144 742.140184 332.679096 729.061338 338.95986 722.110713 C 341.350795 719.471068 342.799948 718.85095 345.588819 716.920958 C 359.669139 707.211308 371.690137 707.811529 387.998901 708.000548 C 404.251291 708.189568 424.761601 716.191408 439.999253 722.060971 C 444.280387 723.709092 457.601311 729.999804 461.000352 729.920217 C 464.200425 729.84063 476.420391 722.309682 479.998503 720.260309 C 493.85001 712.331424 521.440274 692.6402 533.000329 681.998714 C 533.000329 681.998714 513.998861 681.998714 513.998861 681.998714 C 513.998861 681.998714 497.998498 683.000188 497.998498 683.000188 C 497.998498 683.000188 480.999977 683.998345 480.999977 683.998345 C 480.999977 683.998345 466.001087 683.998345 466.001087 683.998345 C 466.001087 683.998345 450.998881 684.999819 450.998881 684.999819 C 450.998881 684.999819 430.999256 684.999819 430.999256 684.999819 C 426.940304 684.950077 410.071112 684.74116 412.840087 677.279851 C 414.319085 673.300486 428.100952 675.989873 432.00073 675.999822 C 432.00073 675.999822 450.000724 675.999822 450.000724 675.999822 C 450.000724 675.999822 461.998509 675.041458 461.998509 675.041458 C 461.998509 675.041458 475.999242 675.041458 475.999242 675.041458 C 475.999242 675.041458 506.998495 672.998717 506.998495 672.998717 C 506.998495 672.998717 533.998486 672.169683 533.998486 672.169683 C 537.699296 671.821488 541.529434 672.461503 545.00143 670.859809 C 549.829727 668.641313 555.961265 661.359075 560.089856 657.558781 C 574.571428 644.241173 589.948358 627.249285 601.001044 611.000211 Z M 444.999989 738.001644 C 444.999989 738.001644 407.000369 723.818524 407.000369 723.818524 C 397.95063 720.910272 392.97974 718.390007 383.001482 719.089712 C 373.520645 719.749623 359.818365 727.320365 359.400532 738.001644 C 358.989331 748.689555 372.141132 754.260666 380.998535 754.910629 C 388.761613 755.481005 389.129704 754.658603 396.000741 753.368625 C 396.000741 753.368625 403.999265 752.529642 403.999265 752.529642 C 403.999265 752.529642 423.000732 747.001641 423.000732 747.001641 C 429.099109 745.161185 439.999253 741.579756 444.999989 738.001644 Z M 444.999989 738.001644 " stroke="#000000" stroke-width="1" stroke-opacity="1" stroke-miterlimit="4"/></svg>